<svg display="none"
    xmlns="http://www.w3.org/2000/svg">
    <symbol id="icon-arrow-right-up"
        viewBox="0 0 21 20">
        <path
            d="M1.25005 13.7009C0.532613 14.1151 0.2868 15.0325 0.701013 15.75C1.11523 16.4674 2.03261 16.7132 2.75005 16.299L1.25005 13.7009ZM20.7694 5.38818C20.9839 4.58798 20.509 3.76548 19.7088 3.55107L6.66879 0.0570085C5.86859 -0.157404 5.04608 0.31747 4.83167 1.11767C4.61726 1.91787 5.09213 2.74037 5.89233 2.95479L17.4834 6.06061L14.3776 17.6517C14.1632 18.4519 14.6381 19.2744 15.4383 19.4888C16.2385 19.7033 17.061 19.2284 17.2754 18.4282L20.7694 5.38818ZM2.75005 16.299L20.0706 6.29899L18.5706 3.70092L1.25005 13.7009L2.75005 16.299Z" />
    </symbol>
    <symbol id="icon-linkedin"
        viewBox="0 0 17 17">
        <path
            d="M0.317757 17H3.81308V5.68438H0.317757V17Z"
            fill="currentColor" />
        <path
            d="M0 2.07188C0 3.1875 0.900311 4.09062 2.06542 4.09062C3.17757 4.09062 4.07788 3.1875 4.07788 2.07188C4.07788 0.95625 3.17757 0 2.06542 0C0.900311 0 0 0.95625 0 2.07188Z"
            fill="currentColor" />
        <path
            d="M13.4517 17H17V10.7844C17 7.75625 16.3115 5.36562 12.7632 5.36562C11.0685 5.36562 9.90343 6.32188 9.42679 7.225H9.37383V5.68438H6.03738V17H9.53271V11.4219C9.53271 9.93437 9.79751 8.5 11.6511 8.5C13.4517 8.5 13.4517 10.2 13.4517 11.475V17Z"
            fill="currentColor" />
    </symbol>

</svg>